<?xml version="1.0" encoding="UTF-8" standalone="no"?>
<!-- Created with Inkscape (http://www.inkscape.org/) -->

<svg
   version="1.1"
   id="svg1"
   width="1623.6797"
   height="525.78662"
   viewBox="0 0 1623.6797 525.78662"
   xmlns="http://www.w3.org/2000/svg"
   xmlns:svg="http://www.w3.org/2000/svg">
  <defs
     id="defs1" />
  <g
     id="g1"
     transform="translate(-3262.8267,-2803.0535)">
    <g
       id="group-R5">
      <path
         id="path29"
         d="M 29379.8,11444.8 V 10289 h 1359.8 V 9762.1 H 29379.8 V 8555.2 h 1529.8 v -526.9 h -2175.7 v 3943.4 h 2175.7 v -526.9 h -1529.8"
         style="fill:#ffffff;fill-opacity:1;fill-rule:nonzero;stroke:none"
         transform="matrix(0.13333333,0,0,-0.13333333,0,4399.28)" />
      <path
         id="path30"
         d="M 32348.6,11444.8 V 10289 h 1359.8 V 9762.1 H 32348.6 V 8555.2 h 1529.8 v -526.9 h -2175.7 v 3943.4 h 2175.7 v -526.9 h -1529.8"
         style="fill:#ffffff;fill-opacity:1;fill-rule:nonzero;stroke:none"
         transform="matrix(0.13333333,0,0,-0.13333333,0,4399.28)" />
      <path
         id="path31"
         d="m 35317.4,8549.6 h 1331.4 V 8028.3 H 34671.5 V 11966 h 645.9 V 8549.6"
         style="fill:#ffffff;fill-opacity:1;fill-rule:nonzero;stroke:none"
         transform="matrix(0.13333333,0,0,-0.13333333,0,4399.28)" />
      <path
         id="path32"
         d="m 28093.6,11971.7 h -444.9 L 25191.9,8028.3 h 444.9 l 2456.8,3943.4"
         style="fill:#ffffff;fill-opacity:1;fill-rule:nonzero;stroke:none"
         transform="matrix(0.13333333,0,0,-0.13333333,0,4399.28)" />
      <path
         id="path33"
         d="M 27372.9,11971.7 H 26928 L 24471.2,8028.3 h 444.8 l 2456.9,3943.4"
         style="fill:#ffffff;fill-opacity:1;fill-rule:nonzero;stroke:none"
         transform="matrix(0.13333333,0,0,-0.13333333,0,4399.28)" />
      <path
         id="path34"
         d="m 26630.9,9168.5 710.4,-1140.2 h 752.3 l -1086.5,1744 -376.2,-603.8"
         style="fill:#ffffff;fill-opacity:1;fill-rule:nonzero;stroke:none"
         transform="matrix(0.13333333,0,0,-0.13333333,0,4399.28)" />
      <path
         id="path35"
         d="m 25933.8,10831.6 -710.3,1140.1 h -752.3 l 1086.5,-1743.9 376.1,603.8"
         style="fill:#ffffff;fill-opacity:1;fill-rule:nonzero;stroke:none"
         transform="matrix(0.13333333,0,0,-0.13333333,0,4399.28)" />
    </g>
  </g>
</svg>
