<?xml version="1.0" encoding="UTF-8" standalone="no"?>
<!-- Created with Inkscape (http://www.inkscape.org/) -->

<svg
   version="1.1"
   id="svg1"
   width="1623.6797"
   height="525.78662"
   viewBox="0 0 1623.6797 525.78662"
   xmlns="http://www.w3.org/2000/svg"
   xmlns:svg="http://www.w3.org/2000/svg">
  <defs
     id="defs1" />
  <g
     id="g1"
     transform="translate(-3262.8267,-8.3867759)">
    <g
       id="group-R5">
      <path
         id="path8"
         d="M 29379.8,32404.8 V 31249 h 1359.8 v -526.9 h -1359.8 v -1206.8 h 1529.8 v -527 h -2175.7 v 3943.4 h 2175.7 v -526.9 h -1529.8"
         style="fill:#000000;fill-opacity:1;fill-rule:nonzero;stroke:none"
         transform="matrix(0.13333333,0,0,-0.13333333,0,4399.28)" />
      <path
         id="path9"
         d="M 32348.6,32404.8 V 31249 h 1359.8 v -526.9 h -1359.8 v -1206.8 h 1529.8 v -527 h -2175.7 v 3943.4 h 2175.7 v -526.9 h -1529.8"
         style="fill:#000000;fill-opacity:1;fill-rule:nonzero;stroke:none"
         transform="matrix(0.13333333,0,0,-0.13333333,0,4399.28)" />
      <path
         id="path10"
         d="m 35317.4,29509.6 h 1331.4 v -521.3 h -1977.3 v 3937.8 h 645.9 v -3416.5"
         style="fill:#000000;fill-opacity:1;fill-rule:nonzero;stroke:none"
         transform="matrix(0.13333333,0,0,-0.13333333,0,4399.28)" />
      <path
         id="path11"
         d="m 28093.6,32931.7 h -444.9 l -2456.8,-3943.4 h 444.9 l 2456.8,3943.4"
         style="fill:#000000;fill-opacity:1;fill-rule:nonzero;stroke:none"
         transform="matrix(0.13333333,0,0,-0.13333333,0,4399.28)" />
      <path
         id="path12"
         d="M 27372.9,32931.7 H 26928 l -2456.8,-3943.4 h 444.8 l 2456.9,3943.4"
         style="fill:#000000;fill-opacity:1;fill-rule:nonzero;stroke:none"
         transform="matrix(0.13333333,0,0,-0.13333333,0,4399.28)" />
      <path
         id="path13"
         d="m 26630.9,30128.5 710.4,-1140.2 h 752.3 l -1086.5,1744 -376.2,-603.8"
         style="fill:#000000;fill-opacity:1;fill-rule:nonzero;stroke:none"
         transform="matrix(0.13333333,0,0,-0.13333333,0,4399.28)" />
      <path
         id="path14"
         d="m 25933.8,31791.6 -710.3,1140.1 h -752.3 l 1086.5,-1743.9 376.1,603.8"
         style="fill:#000000;fill-opacity:1;fill-rule:nonzero;stroke:none"
         transform="matrix(0.13333333,0,0,-0.13333333,0,4399.28)" />
    </g>
  </g>
</svg>
